<svg xmlns="http://www.w3.org/2000/svg" viewBox="575 90 910 910">
  <defs>
    <style>
      .st0 { fill: #fcedcd; }
      .st1 { fill: #eadfc7; }
      .st2 { fill: #d8c498; }
    </style>
  </defs>
  <path class="st2" d="M1036.69,2.55l-4.24-2.55-449.82,270.01v539.98l445.58,267.46,4.24,2.55,449.82-270.01V270.01L1036.69,2.55ZM1443.47,786.73l-411.03,246.72-411.03-246.72v-493.43l411.03-246.72,411.03,246.72v493.43Z"/>
  <polygon class="st1" points="642.77 306.38 642.77 773.59 816.47 877.86 816.81 878.07 911.02 934.63 911.35 934.83 911.35 821.3 911.35 614.63 911.36 614.63 911.36 414.89 846.63 476.75 846.6 476.75 816.81 505.23 816.81 505.25 751.87 567.29 816.81 567.29 816.81 764.55 816.47 764.35 737.31 716.84 737.31 363.14 1031.96 186.28 1326.6 363.14 1326.6 716.84 1246.84 764.73 1246.84 566.58 1312.05 566.58 1247.1 504.52 1246.16 503.62 1217.32 476.04 1152.56 414.17 1152.56 476.75 1152.3 476.75 1152.3 821.49 1152.3 934.97 1152.3 935.17 1246.84 878.42 1246.84 878.22 1421.14 773.59 1421.14 306.38 1031.96 72.77 642.77 306.38"/>
  <polygon class="st0" points="1145.07 407.02 1079.24 344.12 1079.23 344.12 1079.23 344.11 1076.5 341.49 1076.49 341.49 1032.3 299.28 988.14 341.49 988.13 341.49 984.68 344.79 984.68 344.8 919.58 407.02 984.68 407.02 984.68 865.33 984.68 978.55 1032.21 1007.06 1032.44 1007.21 1079.23 979.13 1079.23 978.83 1079.23 865.33 1079.23 458.89 1079.24 458.89 1079.24 426.91 1079.23 426.91 1079.23 407.02 1145.07 407.02"/>
</svg>
